<?xml version="1.0" encoding="UTF-8"?>
<svg id="Layer_1" data-name="Layer 1" xmlns="http://www.w3.org/2000/svg" viewBox="0 0 1023 1024">
  <defs>
    <style>
      .cls-1 {
        fill: #7c196a;
      }

      .cls-2 {
        fill: #6fa3d8;
      }

      .cls-3 {
        fill: #fff2ee;
      }
    </style>
  </defs>
  <rect class="cls-1" x="-7.78" width="1043.13" height="1033.34"/>
  <g>
    <path class="cls-2" d="M182.86,598.97l82.56-143.02,81.91,143.02h-164.48ZM381.47,599.62l-99.47-172.6,35.76-61.76,135.22,234.37h-71.51Z"/>
    <path class="cls-2" d="M512.79,455.94v97.19h-97.19l97.19-97.19ZM541.39,427.01l64.36-64.04v236.64h-64.04l-.33-172.6Z"/>
    <path class="cls-2" d="M743.9,436.44c-5.85,0-11.38.92-16.58,2.76-5.2,1.84-9.91,4.39-14.14,7.64-4.22,3.25-7.91,7.1-11.05,11.54-3.14,4.44-5.48,9.26-6.99,14.46h-66.64c1.73-14.3,5.96-27.63,12.68-39.98,6.71-12.35,15.22-23.13,25.52-32.34,10.29-9.21,22.05-16.42,35.27-21.62,13.21-5.2,27.19-7.8,41.93-7.8,16.25,0,31.37,3.04,45.34,9.1,13.98,6.07,26.27,14.41,36.89,25.03l-46.48,46.16c-4.55-4.55-9.91-8.18-16.09-10.89-6.18-2.71-12.73-4.06-19.67-4.06ZM743.9,538.18c6.93,0,13.49-1.35,19.67-4.06,6.18-2.71,11.54-6.34,16.09-10.89l46.48,46.16c-10.62,10.62-22.92,18.97-36.89,25.03-13.98,6.06-29.09,9.1-45.34,9.1-14.74,0-28.72-2.6-41.93-7.8-13.22-5.2-24.92-12.4-35.11-21.62-10.19-9.21-18.64-19.99-25.36-32.34-6.72-12.35-10.94-25.68-12.68-39.98h66.31c1.51,5.2,3.84,10.03,6.99,14.46,3.14,4.44,6.83,8.29,11.05,11.54,4.23,3.25,8.94,5.8,14.14,7.64,5.2,1.84,10.73,2.76,16.58,2.76Z"/>
  </g>
  <g>
    <path class="cls-3" d="M179.32,702.23l20.79-56.75-1.85-4.85h13.4l23.25,61.6h-13.71l-5.77-15.63h-23.79l-5.62,15.63h-6.7ZM193.64,681.06h19.71l-10.01-27.26-9.7,27.26Z"/>
    <path class="cls-3" d="M242.23,721.48v-57.75h11.78v8.01c.92-2.62,2.6-4.8,5.04-6.54,2.44-1.74,5.3-2.62,8.59-2.62,5.7,0,10.32,1.95,13.86,5.85,3.54,3.9,5.31,8.75,5.31,14.55s-1.77,10.65-5.31,14.55c-3.54,3.9-8.16,5.85-13.86,5.85-3.29,0-6.15-.87-8.59-2.62-2.44-1.75-4.12-3.93-5.04-6.54v27.26h-11.78ZM264.64,698c3.03,0,5.38-1.44,7.05-4.31,1.67-2.87,2.5-6.44,2.5-10.7s-.83-7.83-2.5-10.7c-1.67-2.87-4.02-4.31-7.05-4.31-2.31,0-4.29.82-5.93,2.46-1.64,1.64-2.82,3.55-3.54,5.74-.72,2.18-1.08,4.45-1.08,6.81s.36,4.63,1.08,6.81c.72,2.18,1.9,4.09,3.54,5.74,1.64,1.64,3.62,2.46,5.93,2.46Z"/>
    <path class="cls-3" d="M296.82,721.48v-57.75h11.78v8.01c.92-2.62,2.6-4.8,5.04-6.54,2.44-1.74,5.3-2.62,8.59-2.62,5.7,0,10.32,1.95,13.86,5.85,3.54,3.9,5.31,8.75,5.31,14.55s-1.77,10.65-5.31,14.55c-3.54,3.9-8.16,5.85-13.86,5.85-3.29,0-6.15-.87-8.59-2.62-2.44-1.75-4.12-3.93-5.04-6.54v27.26h-11.78ZM319.23,698c3.03,0,5.38-1.44,7.05-4.31,1.67-2.87,2.5-6.44,2.5-10.7s-.83-7.83-2.5-10.7c-1.67-2.87-4.02-4.31-7.05-4.31-2.31,0-4.29.82-5.93,2.46-1.64,1.64-2.82,3.55-3.54,5.74-.72,2.18-1.08,4.45-1.08,6.81s.36,4.63,1.08,6.81c.72,2.18,1.9,4.09,3.54,5.74,1.64,1.64,3.62,2.46,5.93,2.46Z"/>
    <path class="cls-3" d="M363.27,702.23c-4.11,0-7.24-1.1-9.39-3.31-2.16-2.21-3.23-5.34-3.23-9.39v-48.89h11.94v43.89c0,4.26.49,7.24,1.46,8.93.97,1.69,2.72,2.54,5.24,2.54h2.46v6.24h-8.47Z"/>
    <path class="cls-3" d="M382.22,722.64c-3.49,0-6.78-.64-9.86-1.92v-8.09c3.28,1.23,6.54,1.85,9.78,1.85,4.88,0,7.98-1.59,9.32-4.77l1.23-2.93-18.33-43.04h12.94l11.47,28.72,11.24-28.72h6.54l-19.87,49.2c-2.62,6.47-7.44,9.7-14.48,9.7Z"/>
    <path class="cls-3" d="M473.08,702.23v-14.09h-28.18v-2l27.26-45.51h16.32l-33.11,42.12h17.71v-16.71h12.47v16.71h9.24v5.39h-9.24v14.09h-12.47Z"/>
    <path class="cls-3" d="M559.16,703.39c-9.65,0-17.35-3.03-23.1-9.09-5.75-6.06-8.62-13.68-8.62-22.87s2.89-16.75,8.66-22.83,13.51-9.12,23.22-9.12c7.65,0,13.92,2.27,18.83,6.81,4.9,4.54,7.58,10.08,8.05,16.59h-6.7c-.87-5.39-3.07-9.64-6.58-12.74-3.52-3.1-7.92-4.66-13.21-4.66-4,0-7.5,1.23-10.47,3.7-2.98,2.46-5.17,5.63-6.58,9.51-1.41,3.88-2.12,8.12-2.12,12.74s.71,8.87,2.12,12.74c1.41,3.88,3.61,7.05,6.58,9.51,2.98,2.46,6.47,3.7,10.47,3.7,5.08,0,9.55-1.46,13.4-4.39,3.85-2.93,6.29-6.7,7.32-11.32h6.78c-1.18,6.42-4.34,11.64-9.47,15.67-5.13,4.03-11.32,6.04-18.56,6.04Z"/>
    <path class="cls-3" d="M633.7,697.53c-4.21,3.9-9.73,5.85-16.56,5.85s-12.35-1.95-16.55-5.85c-4.21-3.9-6.31-8.75-6.31-14.55s2.12-10.65,6.35-14.55c4.24-3.9,9.74-5.85,16.52-5.85s12.28,1.95,16.52,5.85c4.24,3.9,6.35,8.75,6.35,14.55s-2.11,10.65-6.31,14.55ZM609.91,694.11c1.74,2.8,4.16,4.2,7.24,4.2s5.49-1.4,7.24-4.2c1.74-2.8,2.62-6.51,2.62-11.13s-.87-8.33-2.62-11.13c-1.75-2.8-4.16-4.2-7.24-4.2s-5.49,1.4-7.24,4.2c-1.75,2.8-2.62,6.51-2.62,11.13s.87,8.33,2.62,11.13Z"/>
    <path class="cls-3" d="M661.88,702.23c-4.11,0-7.24-1.1-9.39-3.31s-3.23-5.34-3.23-9.39v-48.89h11.94v43.89c0,4.26.49,7.24,1.46,8.93.97,1.69,2.72,2.54,5.24,2.54h2.46v6.24h-8.47Z"/>
    <path class="cls-3" d="M689.14,702.23c-4.11,0-7.24-1.1-9.39-3.31s-3.23-5.34-3.23-9.39v-48.89h11.94v43.89c0,4.26.49,7.24,1.46,8.93.97,1.69,2.72,2.54,5.24,2.54h2.46v6.24h-8.47Z"/>
    <path class="cls-3" d="M724.56,703.39c-6.98,0-12.45-1.92-16.4-5.78-3.95-3.85-5.93-8.73-5.93-14.63s1.98-10.71,5.93-14.59c3.95-3.88,9.32-5.81,16.09-5.81,6.06,0,10.92,1.46,14.59,4.39,3.67,2.93,5.63,6.83,5.89,11.7.1,1.13.08,2.39-.08,3.77h-29.88c-.21,10.47,3.44,15.71,10.93,15.71,3.44,0,6.33-.94,8.66-2.81,2.34-1.87,3.81-4.04,4.43-6.51h5.78c-.98,4.62-3.2,8.2-6.66,10.74-3.46,2.54-7.92,3.81-13.36,3.81ZM715.17,677.51h17.17c-.05-2.77-.8-5.08-2.23-6.93-1.44-1.85-3.44-2.77-6.01-2.77-2.36,0-4.35.87-5.97,2.62-1.62,1.75-2.61,4.11-2.96,7.08Z"/>
    <path class="cls-3" d="M769.99,722.94c-6.11,0-10.83-.87-14.17-2.62s-5-4.11-5-7.08c0-2.52,1.21-4.39,3.62-5.62-1.95-.77-3.45-1.92-4.5-3.46-1.05-1.54-1.58-3.31-1.58-5.31,0-2.88,1.09-5.2,3.27-6.97,2.18-1.77,4.92-2.66,8.2-2.66h.46c-4.98-2.51-7.47-6.39-7.47-11.63,0-4.57,1.63-8.21,4.89-10.93,3.26-2.72,7.79-4.08,13.59-4.08h23.56l-1.69,8.55-10.4-3.93c3.59,2.57,5.39,6.06,5.39,10.47s-1.63,8.01-4.89,10.78c-3.26,2.77-7.53,4.16-12.82,4.16h-9.01c-1.54,0-2.8.23-3.77.69-.98.46-1.46,1.13-1.46,2,0,1.75,1.69,2.62,5.08,2.62h15.17c10.52,0,15.78,3.77,15.78,11.32,0,4.41-2.07,7.8-6.2,10.16-4.13,2.36-9.48,3.54-16.05,3.54ZM770.22,717.94c4,0,7.25-.6,9.74-1.81,2.49-1.21,3.73-2.61,3.73-4.2,0-2.11-2.26-3.16-6.78-3.16h-15.79c-1.44.87-2.16,2.03-2.16,3.46,0,1.59.94,2.94,2.81,4.04,1.87,1.1,4.68,1.66,8.43,1.66ZM765.83,684.91c1.08,2,2.62,3,4.62,3s3.54-1,4.62-3,1.62-4.44,1.62-7.31-.54-5.29-1.62-7.24c-1.08-1.95-2.62-2.93-4.62-2.93s-3.54.98-4.62,2.93c-1.08,1.95-1.62,4.36-1.62,7.24s.54,5.31,1.62,7.31Z"/>
    <path class="cls-3" d="M821.04,703.39c-6.98,0-12.45-1.92-16.4-5.78-3.95-3.85-5.93-8.73-5.93-14.63s1.98-10.71,5.93-14.59c3.95-3.88,9.32-5.81,16.09-5.81,6.06,0,10.92,1.46,14.59,4.39,3.67,2.93,5.63,6.83,5.89,11.7.1,1.13.08,2.39-.08,3.77h-29.88c-.21,10.47,3.44,15.71,10.93,15.71,3.44,0,6.33-.94,8.66-2.81,2.34-1.87,3.81-4.04,4.43-6.51h5.78c-.98,4.62-3.2,8.2-6.66,10.74-3.46,2.54-7.92,3.81-13.36,3.81ZM811.65,677.51h17.17c-.05-2.77-.8-5.08-2.23-6.93-1.44-1.85-3.44-2.77-6.01-2.77-2.36,0-4.35.87-5.97,2.62-1.62,1.75-2.61,4.11-2.96,7.08Z"/>
  </g>
</svg>